<?xml version="1.0" encoding="UTF-8" standalone="no"?>
<!DOCTYPE svg PUBLIC "-//W3C//DTD SVG 1.1//EN"
 "http://www.w3.org/Graphics/SVG/1.1/DTD/svg11.dtd">
<!-- Generated by graphviz version 7.0.4 (20221203.1631)
 -->
<!-- Title: DependenciesGraph Pages: 1 -->
<svg width="553pt" height="404pt"
 viewBox="0.00 0.00 552.50 404.00" xmlns="http://www.w3.org/2000/svg" xmlns:xlink="http://www.w3.org/1999/xlink">
<g id="graph0" class="graph" transform="scale(1 1) rotate(0) translate(4 400)">
<title>DependenciesGraph</title>
<polygon fill="white" stroke="none" points="-4,4 -4,-400 548.5,-400 548.5,4 -4,4"/>
<!-- MarvelRoot -->
<g id="node1" class="node">
<title>MarvelRoot</title>
<polygon fill="none" stroke="black" points="253.5,-396 170.5,-396 170.5,-360 253.5,-360 253.5,-396"/>
<text text-anchor="middle" x="212" y="-374.3" font-family="Times,serif" font-size="14.00">MarvelRoot</text>
</g>
<!-- MarvelCharacter -->
<g id="node2" class="node">
<title>MarvelCharacter</title>
<polygon fill="none" stroke="black" points="437.5,-324 328.5,-324 328.5,-288 437.5,-288 437.5,-324"/>
<text text-anchor="middle" x="383" y="-302.3" font-family="Times,serif" font-size="14.00">MarvelCharacter</text>
</g>
<!-- MarvelRoot&#45;&gt;MarvelCharacter -->
<g id="edge1" class="edge">
<title>MarvelRoot&#45;&gt;MarvelCharacter</title>
<path fill="none" stroke="black" d="M253.83,-359.88C276.74,-350.5 305.37,-338.78 329.85,-328.76"/>
<polygon fill="black" stroke="black" points="331.08,-332.03 339.01,-325.01 328.43,-325.56 331.08,-332.03"/>
</g>
<!-- MarvelEvent -->
<g id="node16" class="node">
<title>MarvelEvent</title>
<polygon fill="none" stroke="black" points="88,-324 0,-324 0,-288 88,-288 88,-324"/>
<text text-anchor="middle" x="44" y="-302.3" font-family="Times,serif" font-size="14.00">MarvelEvent</text>
</g>
<!-- MarvelRoot&#45;&gt;MarvelEvent -->
<g id="edge19" class="edge">
<title>MarvelRoot&#45;&gt;MarvelEvent</title>
<path fill="none" stroke="black" d="M170.04,-359.52C147.71,-350.21 120.03,-338.68 96.3,-328.79"/>
<polygon fill="black" stroke="black" points="97.69,-325.58 87.11,-324.96 95,-332.04 97.69,-325.58"/>
</g>
<!-- MarvelFavorite -->
<g id="node17" class="node">
<title>MarvelFavorite</title>
<polygon fill="none" stroke="black" points="207.5,-324 106.5,-324 106.5,-288 207.5,-288 207.5,-324"/>
<text text-anchor="middle" x="157" y="-302.3" font-family="Times,serif" font-size="14.00">MarvelFavorite</text>
</g>
<!-- MarvelRoot&#45;&gt;MarvelFavorite -->
<g id="edge22" class="edge">
<title>MarvelRoot&#45;&gt;MarvelFavorite</title>
<path fill="none" stroke="black" d="M198.4,-359.7C192.08,-351.64 184.42,-341.89 177.41,-332.98"/>
<polygon fill="black" stroke="black" points="180.3,-331 171.37,-325.29 174.8,-335.32 180.3,-331"/>
</g>
<!-- MarvelAlert -->
<g id="node18" class="node">
<title>MarvelAlert</title>
<polygon fill="none" stroke="black" points="310,-324 226,-324 226,-288 310,-288 310,-324"/>
<text text-anchor="middle" x="268" y="-302.3" font-family="Times,serif" font-size="14.00">MarvelAlert</text>
</g>
<!-- MarvelRoot&#45;&gt;MarvelAlert -->
<g id="edge25" class="edge">
<title>MarvelRoot&#45;&gt;MarvelAlert</title>
<path fill="none" stroke="black" d="M225.84,-359.7C232.29,-351.64 240.08,-341.89 247.21,-332.98"/>
<polygon fill="black" stroke="black" points="249.86,-335.28 253.37,-325.29 244.39,-330.91 249.86,-335.28"/>
</g>
<!-- DataManager -->
<g id="node3" class="node">
<title>DataManager</title>
<polygon fill="none" stroke="black" points="303.5,-252 212.5,-252 212.5,-216 303.5,-216 303.5,-252"/>
<text text-anchor="middle" x="258" y="-230.3" font-family="Times,serif" font-size="14.00">DataManager</text>
</g>
<!-- MarvelCharacter&#45;&gt;DataManager -->
<g id="edge2" class="edge">
<title>MarvelCharacter&#45;&gt;DataManager</title>
<path fill="none" stroke="black" d="M351.78,-287.52C335.7,-278.51 315.9,-267.42 298.64,-257.76"/>
<polygon fill="black" stroke="black" points="300.58,-254.83 290.14,-253 297.16,-260.94 300.58,-254.83"/>
</g>
<!-- CoreUI -->
<g id="node15" class="node">
<title>CoreUI</title>
<polygon fill="none" stroke="black" points="194.5,-252 137.5,-252 137.5,-216 194.5,-216 194.5,-252"/>
<text text-anchor="middle" x="166" y="-230.3" font-family="Times,serif" font-size="14.00">CoreUI</text>
</g>
<!-- MarvelCharacter&#45;&gt;CoreUI -->
<g id="edge17" class="edge">
<title>MarvelCharacter&#45;&gt;CoreUI</title>
<path fill="none" stroke="black" d="M328.18,-289.8C288.78,-278.71 238.07,-264.1 205.59,-252.67"/>
<polygon fill="black" stroke="black" points="206.93,-249.43 196.34,-249.28 204.53,-256 206.93,-249.43"/>
</g>
<!-- Network -->
<g id="node4" class="node">
<title>Network</title>
<polygon fill="none" stroke="black" points="204,-180 140,-180 140,-144 204,-144 204,-180"/>
<text text-anchor="middle" x="172" y="-158.3" font-family="Times,serif" font-size="14.00">Network</text>
</g>
<!-- DataManager&#45;&gt;Network -->
<g id="edge3" class="edge">
<title>DataManager&#45;&gt;Network</title>
<path fill="none" stroke="black" d="M236.74,-215.7C226.3,-207.2 213.54,-196.81 202.12,-187.51"/>
<polygon fill="black" stroke="black" points="204.45,-184.9 194.49,-181.3 200.03,-190.33 204.45,-184.9"/>
</g>
<!-- Notifier -->
<g id="node9" class="node">
<title>Notifier</title>
<polygon fill="none" stroke="black" points="363.5,-180 304.5,-180 304.5,-144 363.5,-144 363.5,-180"/>
<text text-anchor="middle" x="334" y="-158.3" font-family="Times,serif" font-size="14.00">Notifier</text>
</g>
<!-- DataManager&#45;&gt;Notifier -->
<g id="edge9" class="edge">
<title>DataManager&#45;&gt;Notifier</title>
<path fill="none" stroke="black" d="M276.79,-215.7C285.83,-207.37 296.84,-197.22 306.78,-188.07"/>
<polygon fill="black" stroke="black" points="309.07,-190.72 314.05,-181.37 304.33,-185.57 309.07,-190.72"/>
</g>
<!-- Storage -->
<g id="node14" class="node">
<title>Storage</title>
<polygon fill="none" stroke="black" points="283,-180 225,-180 225,-144 283,-144 283,-180"/>
<text text-anchor="middle" x="254" y="-158.3" font-family="Times,serif" font-size="14.00">Storage</text>
</g>
<!-- DataManager&#45;&gt;Storage -->
<g id="edge15" class="edge">
<title>DataManager&#45;&gt;Storage</title>
<path fill="none" stroke="black" d="M257.01,-215.7C256.59,-208.41 256.1,-199.73 255.63,-191.54"/>
<polygon fill="black" stroke="black" points="259.13,-191.4 255.06,-181.62 252.14,-191.8 259.13,-191.4"/>
</g>
<!-- SharedModels -->
<g id="node5" class="node">
<title>SharedModels</title>
<polygon fill="none" stroke="black" points="207.5,-108 112.5,-108 112.5,-72 207.5,-72 207.5,-108"/>
<text text-anchor="middle" x="160" y="-86.3" font-family="Times,serif" font-size="14.00">SharedModels</text>
</g>
<!-- Network&#45;&gt;SharedModels -->
<g id="edge4" class="edge">
<title>Network&#45;&gt;SharedModels</title>
<path fill="none" stroke="black" d="M169.03,-143.7C167.77,-136.32 166.26,-127.52 164.84,-119.25"/>
<polygon fill="black" stroke="black" points="168.33,-118.86 163.19,-109.6 161.43,-120.04 168.33,-118.86"/>
</g>
<!-- Core -->
<g id="node8" class="node">
<title>Core</title>
<polygon fill="none" stroke="black" points="280,-108 226,-108 226,-72 280,-72 280,-108"/>
<text text-anchor="middle" x="253" y="-86.3" font-family="Times,serif" font-size="14.00">Core</text>
</g>
<!-- Network&#45;&gt;Core -->
<g id="edge7" class="edge">
<title>Network&#45;&gt;Core</title>
<path fill="none" stroke="black" d="M192.02,-143.7C201.76,-135.28 213.64,-125.02 224.31,-115.79"/>
<polygon fill="black" stroke="black" points="226.5,-118.52 231.78,-109.34 221.93,-113.23 226.5,-118.52"/>
</g>
<!-- AnyCodable -->
<g id="node6" class="node">
<title>AnyCodable</title>
<polygon fill="none" stroke="black" points="260.5,-36 175.5,-36 175.5,0 260.5,0 260.5,-36"/>
<text text-anchor="middle" x="218" y="-14.3" font-family="Times,serif" font-size="14.00">AnyCodable</text>
</g>
<!-- SharedModels&#45;&gt;AnyCodable -->
<g id="edge5" class="edge">
<title>SharedModels&#45;&gt;AnyCodable</title>
<path fill="none" stroke="black" d="M174.34,-71.7C181.08,-63.56 189.26,-53.69 196.7,-44.7"/>
<polygon fill="black" stroke="black" points="199.18,-47.2 202.86,-37.27 193.79,-42.74 199.18,-47.2"/>
</g>
<!-- Assets -->
<g id="node7" class="node">
<title>Assets</title>
<polygon fill="none" stroke="black" points="157,-36 103,-36 103,0 157,0 157,-36"/>
<text text-anchor="middle" x="130" y="-14.3" font-family="Times,serif" font-size="14.00">Assets</text>
</g>
<!-- SharedModels&#45;&gt;Assets -->
<g id="edge6" class="edge">
<title>SharedModels&#45;&gt;Assets</title>
<path fill="none" stroke="black" d="M152.58,-71.7C149.35,-64.15 145.48,-55.12 141.86,-46.68"/>
<polygon fill="black" stroke="black" points="145.08,-45.31 137.93,-37.5 138.65,-48.07 145.08,-45.31"/>
</g>
<!-- Core&#45;&gt;AnyCodable -->
<g id="edge8" class="edge">
<title>Core&#45;&gt;AnyCodable</title>
<path fill="none" stroke="black" d="M244.35,-71.7C240.53,-64.07 235.96,-54.92 231.7,-46.4"/>
<polygon fill="black" stroke="black" points="234.83,-44.84 227.23,-37.46 228.57,-47.97 234.83,-44.84"/>
</g>
<!-- Notifier&#45;&gt;Core -->
<g id="edge14" class="edge">
<title>Notifier&#45;&gt;Core</title>
<path fill="none" stroke="black" d="M313.98,-143.7C304.24,-135.28 292.36,-125.02 281.69,-115.79"/>
<polygon fill="black" stroke="black" points="284.07,-113.23 274.22,-109.34 279.5,-118.52 284.07,-113.23"/>
</g>
<!-- ably&#45;cocoa -->
<g id="node10" class="node">
<title>ably&#45;cocoa</title>
<polygon fill="none" stroke="black" points="374,-108 298,-108 298,-72 374,-72 374,-108"/>
<text text-anchor="middle" x="336" y="-86.3" font-family="Times,serif" font-size="14.00">ably&#45;cocoa</text>
</g>
<!-- Notifier&#45;&gt;ably&#45;cocoa -->
<g id="edge10" class="edge">
<title>Notifier&#45;&gt;ably&#45;cocoa</title>
<path fill="none" stroke="black" d="M334.49,-143.7C334.7,-136.41 334.95,-127.73 335.18,-119.54"/>
<polygon fill="black" stroke="black" points="338.68,-119.71 335.47,-109.62 331.68,-119.51 338.68,-119.71"/>
</g>
<!-- swift&#45;async&#45;algorithms -->
<g id="node13" class="node">
<title>swift&#45;async&#45;algorithms</title>
<polygon fill="none" stroke="black" points="534,-108 392,-108 392,-72 534,-72 534,-108"/>
<text text-anchor="middle" x="463" y="-86.3" font-family="Times,serif" font-size="14.00">swift&#45;async&#45;algorithms</text>
</g>
<!-- Notifier&#45;&gt;swift&#45;async&#45;algorithms -->
<g id="edge13" class="edge">
<title>Notifier&#45;&gt;swift&#45;async&#45;algorithms</title>
<path fill="none" stroke="black" d="M363.92,-144.76C380.88,-135.56 402.36,-123.91 420.98,-113.8"/>
<polygon fill="black" stroke="black" points="422.54,-116.94 429.66,-109.09 419.2,-110.79 422.54,-116.94"/>
</g>
<!-- msgpack&#45;objective&#45;C -->
<g id="node11" class="node">
<title>msgpack&#45;objective&#45;C</title>
<polygon fill="none" stroke="black" points="544.5,-36 411.5,-36 411.5,0 544.5,0 544.5,-36"/>
<text text-anchor="middle" x="478" y="-14.3" font-family="Times,serif" font-size="14.00">msgpack&#45;objective&#45;C</text>
</g>
<!-- ably&#45;cocoa&#45;&gt;msgpack&#45;objective&#45;C -->
<g id="edge11" class="edge">
<title>ably&#45;cocoa&#45;&gt;msgpack&#45;objective&#45;C</title>
<path fill="none" stroke="black" d="M371.47,-71.52C390.07,-62.34 413.07,-51.01 432.93,-41.22"/>
<polygon fill="black" stroke="black" points="434.21,-44.49 441.63,-36.93 431.11,-38.21 434.21,-44.49"/>
</g>
<!-- delta&#45;codec&#45;cocoa -->
<g id="node12" class="node">
<title>delta&#45;codec&#45;cocoa</title>
<polygon fill="none" stroke="black" points="393.5,-36 278.5,-36 278.5,0 393.5,0 393.5,-36"/>
<text text-anchor="middle" x="336" y="-14.3" font-family="Times,serif" font-size="14.00">delta&#45;codec&#45;cocoa</text>
</g>
<!-- ably&#45;cocoa&#45;&gt;delta&#45;codec&#45;cocoa -->
<g id="edge12" class="edge">
<title>ably&#45;cocoa&#45;&gt;delta&#45;codec&#45;cocoa</title>
<path fill="none" stroke="black" d="M336,-71.7C336,-64.41 336,-55.73 336,-47.54"/>
<polygon fill="black" stroke="black" points="339.5,-47.62 336,-37.62 332.5,-47.62 339.5,-47.62"/>
</g>
<!-- Storage&#45;&gt;Core -->
<g id="edge16" class="edge">
<title>Storage&#45;&gt;Core</title>
<path fill="none" stroke="black" d="M253.75,-143.7C253.65,-136.41 253.52,-127.73 253.41,-119.54"/>
<polygon fill="black" stroke="black" points="256.91,-119.57 253.27,-109.62 249.91,-119.67 256.91,-119.57"/>
</g>
<!-- CoreUI&#45;&gt;Network -->
<g id="edge18" class="edge">
<title>CoreUI&#45;&gt;Network</title>
<path fill="none" stroke="black" d="M167.48,-215.7C168.11,-208.41 168.85,-199.73 169.55,-191.54"/>
<polygon fill="black" stroke="black" points="173.04,-191.87 170.4,-181.61 166.06,-191.28 173.04,-191.87"/>
</g>
<!-- MarvelEvent&#45;&gt;DataManager -->
<g id="edge20" class="edge">
<title>MarvelEvent&#45;&gt;DataManager</title>
<path fill="none" stroke="black" d="M88.34,-290.5C121.18,-279.75 166.18,-265.03 201.58,-253.45"/>
<polygon fill="black" stroke="black" points="202.38,-256.87 210.8,-250.44 200.21,-250.22 202.38,-256.87"/>
</g>
<!-- MarvelEvent&#45;&gt;CoreUI -->
<g id="edge21" class="edge">
<title>MarvelEvent&#45;&gt;CoreUI</title>
<path fill="none" stroke="black" d="M74.47,-287.52C90.52,-278.31 110.36,-266.92 127.47,-257.11"/>
<polygon fill="black" stroke="black" points="128.93,-260.3 135.86,-252.29 125.45,-254.23 128.93,-260.3"/>
</g>
<!-- MarvelFavorite&#45;&gt;DataManager -->
<g id="edge23" class="edge">
<title>MarvelFavorite&#45;&gt;DataManager</title>
<path fill="none" stroke="black" d="M182.23,-287.52C194.85,-278.76 210.32,-268.04 223.98,-258.58"/>
<polygon fill="black" stroke="black" points="225.63,-261.7 231.85,-253.12 221.64,-255.94 225.63,-261.7"/>
</g>
<!-- MarvelFavorite&#45;&gt;CoreUI -->
<g id="edge24" class="edge">
<title>MarvelFavorite&#45;&gt;CoreUI</title>
<path fill="none" stroke="black" d="M159.22,-287.7C160.17,-280.32 161.3,-271.52 162.37,-263.25"/>
<polygon fill="black" stroke="black" points="165.8,-263.97 163.61,-253.61 158.86,-263.08 165.8,-263.97"/>
</g>
<!-- MarvelAlert&#45;&gt;DataManager -->
<g id="edge26" class="edge">
<title>MarvelAlert&#45;&gt;DataManager</title>
<path fill="none" stroke="black" d="M265.53,-287.7C264.47,-280.32 263.22,-271.52 262.04,-263.25"/>
<polygon fill="black" stroke="black" points="265.54,-263.01 260.66,-253.6 258.61,-264 265.54,-263.01"/>
</g>
<!-- MarvelAlert&#45;&gt;CoreUI -->
<g id="edge27" class="edge">
<title>MarvelAlert&#45;&gt;CoreUI</title>
<path fill="none" stroke="black" d="M242.52,-287.52C229.77,-278.76 214.15,-268.04 200.35,-258.58"/>
<polygon fill="black" stroke="black" points="202.62,-255.89 192.4,-253.12 198.66,-261.66 202.62,-255.89"/>
</g>
</g>
</svg>
