<?xml version="1.0" encoding="UTF-8" standalone="no"?>
<!DOCTYPE svg PUBLIC "-//W3C//DTD SVG 1.1//EN"
 "http://www.w3.org/Graphics/SVG/1.1/DTD/svg11.dtd">
<!-- Generated by graphviz version 7.0.4 (20221203.1631)
 -->
<!-- Title: DependenciesGraph Pages: 1 -->
<svg width="450pt" height="332pt"
 viewBox="0.00 0.00 449.50 332.00" xmlns="http://www.w3.org/2000/svg" xmlns:xlink="http://www.w3.org/1999/xlink">
<g id="graph0" class="graph" transform="scale(1 1) rotate(0) translate(4 328)">
<title>DependenciesGraph</title>
<polygon fill="white" stroke="none" points="-4,4 -4,-328 445.5,-328 445.5,4 -4,4"/>
<!-- MarvelCharacter -->
<g id="node1" class="node">
<title>MarvelCharacter</title>
<polygon fill="none" stroke="black" points="172.5,-324 63.5,-324 63.5,-288 172.5,-288 172.5,-324"/>
<text text-anchor="middle" x="118" y="-302.3" font-family="Times,serif" font-size="14.00">MarvelCharacter</text>
</g>
<!-- DataManager -->
<g id="node2" class="node">
<title>DataManager</title>
<polygon fill="none" stroke="black" points="209.5,-252 118.5,-252 118.5,-216 209.5,-216 209.5,-252"/>
<text text-anchor="middle" x="164" y="-230.3" font-family="Times,serif" font-size="14.00">DataManager</text>
</g>
<!-- MarvelCharacter&#45;&gt;DataManager -->
<g id="edge1" class="edge">
<title>MarvelCharacter&#45;&gt;DataManager</title>
<path fill="none" stroke="black" d="M129.37,-287.7C134.55,-279.81 140.8,-270.3 146.56,-261.55"/>
<polygon fill="black" stroke="black" points="149.36,-263.65 151.93,-253.37 143.51,-259.8 149.36,-263.65"/>
</g>
<!-- CoreUI -->
<g id="node14" class="node">
<title>CoreUI</title>
<polygon fill="none" stroke="black" points="100.5,-252 43.5,-252 43.5,-216 100.5,-216 100.5,-252"/>
<text text-anchor="middle" x="72" y="-230.3" font-family="Times,serif" font-size="14.00">CoreUI</text>
</g>
<!-- MarvelCharacter&#45;&gt;CoreUI -->
<g id="edge16" class="edge">
<title>MarvelCharacter&#45;&gt;CoreUI</title>
<path fill="none" stroke="black" d="M106.63,-287.7C101.45,-279.81 95.2,-270.3 89.44,-261.55"/>
<polygon fill="black" stroke="black" points="92.49,-259.8 84.07,-253.37 86.64,-263.65 92.49,-259.8"/>
</g>
<!-- Network -->
<g id="node3" class="node">
<title>Network</title>
<polygon fill="none" stroke="black" points="110,-180 46,-180 46,-144 110,-144 110,-180"/>
<text text-anchor="middle" x="78" y="-158.3" font-family="Times,serif" font-size="14.00">Network</text>
</g>
<!-- DataManager&#45;&gt;Network -->
<g id="edge2" class="edge">
<title>DataManager&#45;&gt;Network</title>
<path fill="none" stroke="black" d="M142.74,-215.7C132.3,-207.2 119.54,-196.81 108.12,-187.51"/>
<polygon fill="black" stroke="black" points="110.45,-184.9 100.49,-181.3 106.03,-190.33 110.45,-184.9"/>
</g>
<!-- Notifier -->
<g id="node8" class="node">
<title>Notifier</title>
<polygon fill="none" stroke="black" points="269.5,-180 210.5,-180 210.5,-144 269.5,-144 269.5,-180"/>
<text text-anchor="middle" x="240" y="-158.3" font-family="Times,serif" font-size="14.00">Notifier</text>
</g>
<!-- DataManager&#45;&gt;Notifier -->
<g id="edge8" class="edge">
<title>DataManager&#45;&gt;Notifier</title>
<path fill="none" stroke="black" d="M182.79,-215.7C191.83,-207.37 202.84,-197.22 212.78,-188.07"/>
<polygon fill="black" stroke="black" points="215.07,-190.72 220.05,-181.37 210.33,-185.57 215.07,-190.72"/>
</g>
<!-- Storage -->
<g id="node13" class="node">
<title>Storage</title>
<polygon fill="none" stroke="black" points="189,-180 131,-180 131,-144 189,-144 189,-180"/>
<text text-anchor="middle" x="160" y="-158.3" font-family="Times,serif" font-size="14.00">Storage</text>
</g>
<!-- DataManager&#45;&gt;Storage -->
<g id="edge14" class="edge">
<title>DataManager&#45;&gt;Storage</title>
<path fill="none" stroke="black" d="M163.01,-215.7C162.59,-208.41 162.1,-199.73 161.63,-191.54"/>
<polygon fill="black" stroke="black" points="165.13,-191.4 161.06,-181.62 158.14,-191.8 165.13,-191.4"/>
</g>
<!-- SharedModels -->
<g id="node4" class="node">
<title>SharedModels</title>
<polygon fill="none" stroke="black" points="113.5,-108 18.5,-108 18.5,-72 113.5,-72 113.5,-108"/>
<text text-anchor="middle" x="66" y="-86.3" font-family="Times,serif" font-size="14.00">SharedModels</text>
</g>
<!-- Network&#45;&gt;SharedModels -->
<g id="edge3" class="edge">
<title>Network&#45;&gt;SharedModels</title>
<path fill="none" stroke="black" d="M75.03,-143.7C73.77,-136.32 72.26,-127.52 70.84,-119.25"/>
<polygon fill="black" stroke="black" points="74.33,-118.86 69.19,-109.6 67.43,-120.04 74.33,-118.86"/>
</g>
<!-- Core -->
<g id="node7" class="node">
<title>Core</title>
<polygon fill="none" stroke="black" points="186,-108 132,-108 132,-72 186,-72 186,-108"/>
<text text-anchor="middle" x="159" y="-86.3" font-family="Times,serif" font-size="14.00">Core</text>
</g>
<!-- Network&#45;&gt;Core -->
<g id="edge6" class="edge">
<title>Network&#45;&gt;Core</title>
<path fill="none" stroke="black" d="M98.02,-143.7C107.76,-135.28 119.64,-125.02 130.31,-115.79"/>
<polygon fill="black" stroke="black" points="132.5,-118.52 137.78,-109.34 127.93,-113.23 132.5,-118.52"/>
</g>
<!-- AnyCodable -->
<g id="node5" class="node">
<title>AnyCodable</title>
<polygon fill="none" stroke="black" points="157.5,-36 72.5,-36 72.5,0 157.5,0 157.5,-36"/>
<text text-anchor="middle" x="115" y="-14.3" font-family="Times,serif" font-size="14.00">AnyCodable</text>
</g>
<!-- SharedModels&#45;&gt;AnyCodable -->
<g id="edge4" class="edge">
<title>SharedModels&#45;&gt;AnyCodable</title>
<path fill="none" stroke="black" d="M78.11,-71.7C83.69,-63.73 90.43,-54.1 96.62,-45.26"/>
<polygon fill="black" stroke="black" points="99.29,-47.54 102.16,-37.34 93.56,-43.53 99.29,-47.54"/>
</g>
<!-- Assets -->
<g id="node6" class="node">
<title>Assets</title>
<polygon fill="none" stroke="black" points="54,-36 0,-36 0,0 54,0 54,-36"/>
<text text-anchor="middle" x="27" y="-14.3" font-family="Times,serif" font-size="14.00">Assets</text>
</g>
<!-- SharedModels&#45;&gt;Assets -->
<g id="edge5" class="edge">
<title>SharedModels&#45;&gt;Assets</title>
<path fill="none" stroke="black" d="M56.36,-71.7C52.06,-63.98 46.9,-54.71 42.11,-46.11"/>
<polygon fill="black" stroke="black" points="45.19,-44.46 37.27,-37.43 39.08,-47.87 45.19,-44.46"/>
</g>
<!-- Core&#45;&gt;AnyCodable -->
<g id="edge7" class="edge">
<title>Core&#45;&gt;AnyCodable</title>
<path fill="none" stroke="black" d="M148.12,-71.7C143.22,-63.9 137.32,-54.51 131.86,-45.83"/>
<polygon fill="black" stroke="black" points="134.84,-43.99 126.56,-37.39 128.92,-47.71 134.84,-43.99"/>
</g>
<!-- Notifier&#45;&gt;Core -->
<g id="edge13" class="edge">
<title>Notifier&#45;&gt;Core</title>
<path fill="none" stroke="black" d="M219.98,-143.7C210.24,-135.28 198.36,-125.02 187.69,-115.79"/>
<polygon fill="black" stroke="black" points="190.07,-113.23 180.22,-109.34 185.5,-118.52 190.07,-113.23"/>
</g>
<!-- ably&#45;cocoa -->
<g id="node9" class="node">
<title>ably&#45;cocoa</title>
<polygon fill="none" stroke="black" points="280,-108 204,-108 204,-72 280,-72 280,-108"/>
<text text-anchor="middle" x="242" y="-86.3" font-family="Times,serif" font-size="14.00">ably&#45;cocoa</text>
</g>
<!-- Notifier&#45;&gt;ably&#45;cocoa -->
<g id="edge9" class="edge">
<title>Notifier&#45;&gt;ably&#45;cocoa</title>
<path fill="none" stroke="black" d="M240.49,-143.7C240.7,-136.41 240.95,-127.73 241.18,-119.54"/>
<polygon fill="black" stroke="black" points="244.68,-119.71 241.47,-109.62 237.68,-119.51 244.68,-119.71"/>
</g>
<!-- swift&#45;async&#45;algorithms -->
<g id="node12" class="node">
<title>swift&#45;async&#45;algorithms</title>
<polygon fill="none" stroke="black" points="440,-108 298,-108 298,-72 440,-72 440,-108"/>
<text text-anchor="middle" x="369" y="-86.3" font-family="Times,serif" font-size="14.00">swift&#45;async&#45;algorithms</text>
</g>
<!-- Notifier&#45;&gt;swift&#45;async&#45;algorithms -->
<g id="edge12" class="edge">
<title>Notifier&#45;&gt;swift&#45;async&#45;algorithms</title>
<path fill="none" stroke="black" d="M269.92,-144.76C286.88,-135.56 308.36,-123.91 326.98,-113.8"/>
<polygon fill="black" stroke="black" points="328.54,-116.94 335.66,-109.09 325.2,-110.79 328.54,-116.94"/>
</g>
<!-- msgpack&#45;objective&#45;C -->
<g id="node10" class="node">
<title>msgpack&#45;objective&#45;C</title>
<polygon fill="none" stroke="black" points="308.5,-36 175.5,-36 175.5,0 308.5,0 308.5,-36"/>
<text text-anchor="middle" x="242" y="-14.3" font-family="Times,serif" font-size="14.00">msgpack&#45;objective&#45;C</text>
</g>
<!-- ably&#45;cocoa&#45;&gt;msgpack&#45;objective&#45;C -->
<g id="edge10" class="edge">
<title>ably&#45;cocoa&#45;&gt;msgpack&#45;objective&#45;C</title>
<path fill="none" stroke="black" d="M242,-71.7C242,-64.41 242,-55.73 242,-47.54"/>
<polygon fill="black" stroke="black" points="245.5,-47.62 242,-37.62 238.5,-47.62 245.5,-47.62"/>
</g>
<!-- delta&#45;codec&#45;cocoa -->
<g id="node11" class="node">
<title>delta&#45;codec&#45;cocoa</title>
<polygon fill="none" stroke="black" points="441.5,-36 326.5,-36 326.5,0 441.5,0 441.5,-36"/>
<text text-anchor="middle" x="384" y="-14.3" font-family="Times,serif" font-size="14.00">delta&#45;codec&#45;cocoa</text>
</g>
<!-- ably&#45;cocoa&#45;&gt;delta&#45;codec&#45;cocoa -->
<g id="edge11" class="edge">
<title>ably&#45;cocoa&#45;&gt;delta&#45;codec&#45;cocoa</title>
<path fill="none" stroke="black" d="M277.47,-71.52C296.07,-62.34 319.07,-51.01 338.93,-41.22"/>
<polygon fill="black" stroke="black" points="340.21,-44.49 347.63,-36.93 337.11,-38.21 340.21,-44.49"/>
</g>
<!-- Storage&#45;&gt;Core -->
<g id="edge15" class="edge">
<title>Storage&#45;&gt;Core</title>
<path fill="none" stroke="black" d="M159.75,-143.7C159.65,-136.41 159.52,-127.73 159.41,-119.54"/>
<polygon fill="black" stroke="black" points="162.91,-119.57 159.27,-109.62 155.91,-119.67 162.91,-119.57"/>
</g>
<!-- CoreUI&#45;&gt;Network -->
<g id="edge17" class="edge">
<title>CoreUI&#45;&gt;Network</title>
<path fill="none" stroke="black" d="M73.48,-215.7C74.11,-208.41 74.85,-199.73 75.55,-191.54"/>
<polygon fill="black" stroke="black" points="79.04,-191.87 76.4,-181.61 72.06,-191.28 79.04,-191.87"/>
</g>
</g>
</svg>
