<?xml version="1.0" encoding="UTF-8" standalone="no"?>
<!DOCTYPE svg PUBLIC "-//W3C//DTD SVG 1.1//EN"
 "http://www.w3.org/Graphics/SVG/1.1/DTD/svg11.dtd">
<!-- Generated by graphviz version 7.0.4 (20221203.1631)
 -->
<!-- Title: DependenciesGraph Pages: 1 -->
<svg width="446pt" height="116pt"
 viewBox="0.00 0.00 445.50 116.00" xmlns="http://www.w3.org/2000/svg" xmlns:xlink="http://www.w3.org/1999/xlink">
<g id="graph0" class="graph" transform="scale(1 1) rotate(0) translate(4 112)">
<title>DependenciesGraph</title>
<polygon fill="white" stroke="none" points="-4,4 -4,-112 441.5,-112 441.5,4 -4,4"/>
<!-- MarvelRoot -->
<g id="node1" class="node">
<title>MarvelRoot</title>
<polygon fill="none" stroke="black" points="269,-108 186,-108 186,-72 269,-72 269,-108"/>
<text text-anchor="middle" x="227.5" y="-86.3" font-family="Times,serif" font-size="14.00">MarvelRoot</text>
</g>
<!-- MarvelCharacter -->
<g id="node2" class="node">
<title>MarvelCharacter</title>
<polygon fill="none" stroke="black" points="109,-36 0,-36 0,0 109,0 109,-36"/>
<text text-anchor="middle" x="54.5" y="-14.3" font-family="Times,serif" font-size="14.00">MarvelCharacter</text>
</g>
<!-- MarvelRoot&#45;&gt;MarvelCharacter -->
<g id="edge1" class="edge">
<title>MarvelRoot&#45;&gt;MarvelCharacter</title>
<path fill="none" stroke="black" d="M185.62,-72.05C162.26,-62.6 132.92,-50.73 107.92,-40.61"/>
<polygon fill="black" stroke="black" points="109.48,-37.47 98.9,-36.97 106.86,-43.96 109.48,-37.47"/>
</g>
<!-- MarvelEvent -->
<g id="node3" class="node">
<title>MarvelEvent</title>
<polygon fill="none" stroke="black" points="215.5,-36 127.5,-36 127.5,0 215.5,0 215.5,-36"/>
<text text-anchor="middle" x="171.5" y="-14.3" font-family="Times,serif" font-size="14.00">MarvelEvent</text>
</g>
<!-- MarvelRoot&#45;&gt;MarvelEvent -->
<g id="edge2" class="edge">
<title>MarvelRoot&#45;&gt;MarvelEvent</title>
<path fill="none" stroke="black" d="M213.66,-71.7C207.21,-63.64 199.42,-53.89 192.29,-44.98"/>
<polygon fill="black" stroke="black" points="195.11,-42.91 186.13,-37.29 189.64,-47.28 195.11,-42.91"/>
</g>
<!-- MarvelFavorite -->
<g id="node4" class="node">
<title>MarvelFavorite</title>
<polygon fill="none" stroke="black" points="335,-36 234,-36 234,0 335,0 335,-36"/>
<text text-anchor="middle" x="284.5" y="-14.3" font-family="Times,serif" font-size="14.00">MarvelFavorite</text>
</g>
<!-- MarvelRoot&#45;&gt;MarvelFavorite -->
<g id="edge3" class="edge">
<title>MarvelRoot&#45;&gt;MarvelFavorite</title>
<path fill="none" stroke="black" d="M241.59,-71.7C248.15,-63.64 256.09,-53.89 263.34,-44.98"/>
<polygon fill="black" stroke="black" points="266.02,-47.24 269.62,-37.28 260.59,-42.82 266.02,-47.24"/>
</g>
<!-- MarvelAlert -->
<g id="node5" class="node">
<title>MarvelAlert</title>
<polygon fill="none" stroke="black" points="437.5,-36 353.5,-36 353.5,0 437.5,0 437.5,-36"/>
<text text-anchor="middle" x="395.5" y="-14.3" font-family="Times,serif" font-size="14.00">MarvelAlert</text>
</g>
<!-- MarvelRoot&#45;&gt;MarvelAlert -->
<g id="edge4" class="edge">
<title>MarvelRoot&#45;&gt;MarvelAlert</title>
<path fill="none" stroke="black" d="M269.46,-71.52C291.79,-62.21 319.47,-50.68 343.2,-40.79"/>
<polygon fill="black" stroke="black" points="344.5,-44.04 352.39,-36.96 341.81,-37.58 344.5,-44.04"/>
</g>
</g>
</svg>
